<svg xmlns="http://www.w3.org/2000/svg" viewBox="0 0 900 250" width="900" height="250">
<defs><pattern id="g" width="16" height="16" patternUnits="userSpaceOnUse"><circle cx="1" cy="1" r="1" fill="#ffffff" opacity=".07"/></pattern>
<style>.gr{animation:gr 1.4s cubic-bezier(.2,.8,.2,1)}@keyframes gr{from{transform:scaleY(0)}}.dr{stroke-dasharray:600;animation:dr 2.2s ease-out}@keyframes dr{from{stroke-dashoffset:600}to{stroke-dashoffset:0}}</style></defs>
<rect width="900" height="250" rx="16" fill="#0f0b0a"/><rect width="900" height="250" rx="16" fill="url(#g)"/>
<rect x=".5" y=".5" width="899" height="249" rx="16" fill="none" stroke="#2c221e"/>
<text x="40" y="52" font-family="ui-monospace,SFMono-Regular,Menlo,Consolas,monospace" font-size="11" letter-spacing="1.8" fill="#8c7c73">02</text><circle cx="79" cy="48" r="3.5" fill="#8c7c73"/><text x="90" y="52" font-family="ui-monospace,SFMono-Regular,Menlo,Consolas,monospace" font-size="11" letter-spacing="1.8" fill="#8c7c73">LIVE · NEGATIVE RESULT</text><text x="40" y="100" font-family="-apple-system,BlinkMacSystemFont,'Segoe UI',Inter,Helvetica,Arial,sans-serif" font-size="32" font-weight="800" letter-spacing="-1" fill="#f6eee9">Coil</text><text x="40" y="132" font-family="-apple-system,BlinkMacSystemFont,'Segoe UI',Inter,Helvetica,Arial,sans-serif" font-size="16" fill="#c4b3aa"><tspan x="40" dy="0">Does a famous chart pattern beat buying on a</tspan><tspan x="40" dy="21">random day? Ten-year backtest says no.</tspan></text><text x="40" y="200" font-family="-apple-system,BlinkMacSystemFont,'Segoe UI',Inter,Helvetica,Arial,sans-serif" font-size="23" font-weight="800" fill="#f6eee9">2,300</text><text x="40" y="220" font-family="ui-monospace,SFMono-Regular,Menlo,Consolas,monospace" font-size="10.5" fill="#8c7c73">NSE stocks scanned</text><text x="194" y="200" font-family="-apple-system,BlinkMacSystemFont,'Segoe UI',Inter,Helvetica,Arial,sans-serif" font-size="23" font-weight="800" fill="#f6eee9">10 yrs</text><text x="194" y="220" font-family="ui-monospace,SFMono-Regular,Menlo,Consolas,monospace" font-size="10.5" fill="#8c7c73">point-in-time</text><text x="314" y="200" font-family="-apple-system,BlinkMacSystemFont,'Segoe UI',Inter,Helvetica,Arial,sans-serif" font-size="23" font-weight="800" fill="#f6eee9">none</text><text x="314" y="220" font-family="ui-monospace,SFMono-Regular,Menlo,Consolas,monospace" font-size="10.5" fill="#8c7c73">edge over random</text><line x1="540" x2="540" y1="36" y2="214" stroke="#2c221e"/><text x="596" y="40" font-family="ui-monospace,SFMono-Regular,Menlo,Consolas,monospace" font-size="9.5" letter-spacing="1.5" fill="#8c7c73">₹1 COMPOUNDED AT REPORTED CAGR, 10 YRS</text><line x1="596" x2="860" y1="188.7" y2="188.7" stroke="#1f1714"/><text x="588" y="191.7" text-anchor="end" font-family="ui-monospace,SFMono-Regular,Menlo,Consolas,monospace" font-size="9" fill="#8c7c73">1×</text><line x1="596" x2="860" y1="154.0" y2="154.0" stroke="#1f1714"/><text x="588" y="157.0" text-anchor="end" font-family="ui-monospace,SFMono-Regular,Menlo,Consolas,monospace" font-size="9" fill="#8c7c73">3×</text><line x1="596" x2="860" y1="119.3" y2="119.3" stroke="#1f1714"/><text x="588" y="122.3" text-anchor="end" font-family="ui-monospace,SFMono-Regular,Menlo,Consolas,monospace" font-size="9" fill="#8c7c73">5×</text><line x1="596" x2="860" y1="84.7" y2="84.7" stroke="#1f1714"/><text x="588" y="87.7" text-anchor="end" font-family="ui-monospace,SFMono-Regular,Menlo,Consolas,monospace" font-size="9" fill="#8c7c73">7×</text><path d="M596.0,188.7 L622.4,184.8 L648.8,180.1 L675.2,174.3 L701.6,167.2 L728.0,158.6 L754.4,148.0 L780.8,135.1 L807.2,119.2 L833.6,99.9 L860.0,76.2" fill="none" stroke="#ffc46b" stroke-width="2.4" stroke-linecap="round" stroke-linejoin="round"/><circle cx="860.0" cy="76.2" r="4" fill="#ffc46b"/><text x="852.0" y="66.2" text-anchor="end" font-family="ui-monospace,SFMono-Regular,Menlo,Consolas,monospace" font-size="10.5" fill="#ffc46b">random 22.3%</text><path d="M596.0,188.7 L622.4,186.8 L648.8,184.6 L675.2,182.3 L701.6,179.7 L728.0,176.8 L754.4,173.6 L780.8,170.0 L807.2,166.1 L833.6,161.7 L860.0,156.8" fill="none" stroke="#ff7a45" stroke-width="2.4" stroke-linecap="round" stroke-linejoin="round"/><circle cx="860.0" cy="156.8" r="4" fill="#ff7a45"/><text x="852.0" y="180.8" text-anchor="end" font-family="ui-monospace,SFMono-Regular,Menlo,Consolas,monospace" font-size="10.5" fill="#ff7a45">pattern 11.0%</text><line x1="596" x2="860" y1="206" y2="206" stroke="#2c221e"/><text x="596" y="224" font-family="ui-monospace,SFMono-Regular,Menlo,Consolas,monospace" font-size="9.5" fill="#8c7c73">year 0</text><text x="860" y="224" text-anchor="end" font-family="ui-monospace,SFMono-Regular,Menlo,Consolas,monospace" font-size="9.5" fill="#8c7c73">10</text></svg>